<svg width="29" height="36" viewBox="0 0 29 36" fill="none" xmlns="http://www.w3.org/2000/svg">
<path d="M17.479 1.31564e-07C17.479 1.31564e-07 11.4817 -0.0114626 10.8057 6.73259C10.8208 6.74596 17.1154 6.68101 17.479 1.31564e-07Z" fill="#ED3977"/>
<path d="M8.23921 14.5467C8.41722 13.8035 8.78269 12.6878 9.58561 11.5358C9.91132 11.0658 10.7957 9.89082 12.3731 8.96423C12.7386 8.74834 13.7744 8.17137 15.2553 7.88097C16.9444 7.55046 18.2719 7.7759 18.59 7.83321C20.2678 8.14271 21.4021 8.8878 22.1785 9.40746C22.6236 9.70741 24.8373 11.2511 26.4185 14.2754C27.1343 15.6452 27.6191 17.1564 27.8539 18.809C28.4958 23.3388 27.2498 27.3298 24.1328 30.6713C21.8358 33.1358 18.9839 34.5477 15.651 34.9642C9.87345 35.6863 4.20569 32.662 1.56022 27.4502C0.251696 24.8691 -0.238765 22.1352 0.107777 19.2637C0.484618 16.1401 1.77042 13.4367 3.94057 11.1728C4.45565 10.6378 5.02943 10.1583 5.57481 9.652C5.60132 9.66538 5.62594 9.67875 5.65245 9.69212V9.95004C5.65245 14.4741 5.64866 19.0001 5.65435 23.5241C5.65813 26.5351 6.65231 29.1887 8.5422 31.5024C10.1499 33.4702 11.8523 34.3146 12.2235 34.477C12.8295 34.7445 13.4354 34.8954 13.4354 34.8954C13.6665 34.9508 13.8577 34.9871 13.9808 35.0081C13.9789 33.2925 13.977 31.5769 13.9751 29.8631C14.8027 29.9243 16.1586 29.9147 17.6962 29.3664C19.0729 28.8754 19.9951 28.1666 20.3777 27.8495C20.7223 27.5648 21.5498 26.835 22.2846 25.6448C23.3886 23.8565 23.5855 22.16 23.6329 21.6098C23.701 20.8284 23.7427 19.1625 22.9512 17.294C21.957 14.9441 20.2546 13.6965 19.588 13.259C19.0047 12.8769 17.0865 11.7134 14.4713 11.7879C14.121 11.7994 13.106 11.851 11.8675 12.2732C10.0685 12.8884 8.86791 13.9201 8.23921 14.5467Z" fill="#ED3977"/>
<path d="M17.6216 15.4157C18.3904 15.5781 19.0759 15.9239 19.6724 16.4359C20.0928 16.7951 20.4261 17.1925 20.6799 17.6223C21.3729 18.7935 21.3729 19.9589 21.3635 20.5683C21.354 21.0268 21.2934 21.7108 21.0283 22.5094C21.0472 22.4062 21.07 22.2534 21.0889 22.0661C21.2877 20.1346 20.5776 18.6444 20.4204 18.3292C20.2822 18.0522 19.9167 17.3663 19.2407 16.6633C18.6498 16.0462 18.0742 15.6794 17.8166 15.5265C17.7371 15.4788 17.6689 15.4425 17.6216 15.4157Z" fill="#ED3977"/>
</svg>
